<svg width="22" height="22" viewBox="0 0 22 22" fill="none" xmlns="http://www.w3.org/2000/svg">
<path fill-rule="evenodd" clip-rule="evenodd" d="M19.5556 0H2.44444C1.1 0 0 1.1 0 2.44444V11C0 12.3444 1.1 13.4444 2.44444 13.4444H19.5556C20.9 13.4444 22 12.3444 22 11V2.44444C22 1.1 20.9 0 19.5556 0ZM19.5556 7.33333H14.6667C14.6667 9.31333 12.98 11 11 11C9.02 11 7.33333 9.31333 7.33333 7.33333H2.44444V2.44444H19.5556V7.33333ZM22 15.8889H14.6667C14.6667 17.9178 13.0289 19.5556 11 19.5556C8.97111 19.5556 7.33333 17.9178 7.33333 15.8889H0V19.5556C0 20.9 1.1 22 2.44444 22H19.5556C20.9 22 22 20.9 22 19.5556V15.8889Z" fill="#2B292D"/>
</svg>
