<svg width="72" height="72" viewBox="0 0 72 72" fill="none" xmlns="http://www.w3.org/2000/svg">
<g filter="url(#filter0_ddi)">
<rect x="6" y="2" width="60" height="60" rx="14" fill="white"/>
<rect x="6" y="2" width="60" height="60" rx="14" fill="url(#paint0_linear)" fill-opacity="0.1" style="mix-blend-mode:overlay"/>
</g>
<path fill-rule="evenodd" clip-rule="evenodd" d="M23.8077 28.0655V26.8014C23.8077 26.4568 24.0943 26.1694 24.4479 26.1694H48.5521C48.9072 26.1694 49.1923 26.4523 49.1923 26.8014V28.0655C46.918 28.0659 44.8765 29.0591 43.481 30.6335C42.0854 29.0586 40.0432 28.0655 37.7678 28.0655H35.2322C32.9575 28.0655 30.9156 29.0585 29.5199 30.633C28.1242 29.0585 26.0823 28.0655 23.8077 28.0655ZM51.7308 24.2732H21.2692C20.5683 24.2732 20 23.7072 20 23.0091V12.2641C20 11.566 20.5683 11 21.2692 11H26.9808C27.6817 11 28.25 11.566 28.25 12.2641V16.0565H31.4231V12.2641C31.4231 11.566 31.9913 11 32.6923 11H40.3077C41.0087 11 41.5769 11.566 41.5769 12.2641V16.0565H44.75V12.2641C44.75 11.566 45.3183 11 46.0192 11H51.7308C52.4317 11 53 11.566 53 12.2641V23.0091C53 23.7072 52.4317 24.2732 51.7308 24.2732ZM43.481 33.3524C44.8456 31.3087 47.1791 29.9617 49.8283 29.9617C50.5293 29.9617 51.0975 30.5277 51.0975 31.2258V50.1875C51.0975 50.8857 50.5293 51.4516 49.8283 51.4516H43.4808C42.7798 51.4516 42.2115 50.8857 42.2115 50.1875V37.5464C42.2115 34.753 39.9385 32.4899 37.1332 32.4899H35.8668C33.0622 32.4899 30.7885 34.7539 30.7885 37.5464V50.1875C30.7885 50.8851 30.2211 51.4507 29.521 51.4516L29.5206 51.4516H23.1731C22.4721 51.4516 21.9038 50.8857 21.9038 50.1875V31.2258C21.9038 30.5277 22.4721 29.9617 23.1731 29.9617C25.822 29.9617 28.1552 31.3084 29.5199 33.3517C30.8846 31.3084 33.2179 29.9617 35.8668 29.9617H37.1332C39.783 29.9617 42.1165 31.3085 43.481 33.3524ZM44.75 45.0746L48.4131 42.237C48.4601 42.2006 48.5089 42.168 48.5591 42.1391V39.0064L44.75 41.9571V45.0746ZM44.75 38.7542L48.4131 35.9165C48.4601 35.8801 48.5089 35.8475 48.5591 35.8187V32.6163C48.5591 32.6163 48.0069 32.7446 47.2515 33.1884C45.7544 34.0679 44.75 35.6904 44.75 37.5464V38.7542ZM44.75 48.2775V48.9234H48.5591V45.3269L44.75 48.2775ZM24.4423 42.1399C24.492 42.1686 24.5403 42.201 24.5869 42.237L28.2514 45.0757V41.9581L24.4423 39.0074V42.1399ZM24.4423 35.8194C24.492 35.8481 24.5404 35.8804 24.587 35.9165L28.2514 38.7551V37.5464C28.2514 35.1861 26.627 33.2034 24.4423 32.6462V35.8194ZM24.4423 45.3279V48.9234H28.2514V48.2786L24.4423 45.3279Z" fill="url(#paint1_linear)"/>
<defs>
<filter id="filter0_ddi" x="0" y="0" width="72" height="72" filterUnits="userSpaceOnUse" color-interpolation-filters="sRGB">
<feFlood flood-opacity="0" result="BackgroundImageFix"/>
<feColorMatrix in="SourceAlpha" type="matrix" values="0 0 0 0 0 0 0 0 0 0 0 0 0 0 0 0 0 0 127 0"/>
<feOffset dy="4"/>
<feGaussianBlur stdDeviation="3"/>
<feColorMatrix type="matrix" values="0 0 0 0 0 0 0 0 0 0 0 0 0 0 0 0 0 0 0.05 0"/>
<feBlend mode="normal" in2="BackgroundImageFix" result="effect1_dropShadow"/>
<feColorMatrix in="SourceAlpha" type="matrix" values="0 0 0 0 0 0 0 0 0 0 0 0 0 0 0 0 0 0 127 0"/>
<feOffset dy="1"/>
<feGaussianBlur stdDeviation="1.5"/>
<feColorMatrix type="matrix" values="0 0 0 0 0 0 0 0 0 0 0 0 0 0 0 0 0 0 0.1 0"/>
<feBlend mode="normal" in2="effect1_dropShadow" result="effect2_dropShadow"/>
<feBlend mode="normal" in="SourceGraphic" in2="effect2_dropShadow" result="shape"/>
<feColorMatrix in="SourceAlpha" type="matrix" values="0 0 0 0 0 0 0 0 0 0 0 0 0 0 0 0 0 0 127 0" result="hardAlpha"/>
<feOffset dy="1"/>
<feComposite in2="hardAlpha" operator="arithmetic" k2="-1" k3="1"/>
<feColorMatrix type="matrix" values="0 0 0 0 1 0 0 0 0 1 0 0 0 0 1 0 0 0 0.1 0"/>
<feBlend mode="normal" in2="shape" result="effect3_innerShadow"/>
</filter>
<linearGradient id="paint0_linear" x1="6" y1="2" x2="6" y2="62" gradientUnits="userSpaceOnUse">
<stop stop-color="white" stop-opacity="0.5"/>
<stop offset="1" stop-color="white" stop-opacity="0.01"/>
</linearGradient>
<linearGradient id="paint1_linear" x1="6.31875" y1="29.4982" x2="43.2213" y2="62.4145" gradientUnits="userSpaceOnUse">
<stop stop-color="#3142C6"/>
<stop offset="1" stop-color="#AF61D1"/>
</linearGradient>
</defs>
</svg>
